<svg width="48" height="46" viewBox="0 0 48 46" fill="none" xmlns="http://www.w3.org/2000/svg">
<path d="M47.5 23C47.5 35.4066 36.999 45.5 24 45.5C11.001 45.5 0.5 35.4066 0.5 23C0.5 10.5934 11.001 0.5 24 0.5C36.999 0.5 47.5 10.5934 47.5 23Z" fill="white" stroke="#808080"/>
<g clip-path="url(#clip0_403_1666)">
<path fill-rule="evenodd" clip-rule="evenodd" d="M36.8741 8.87172C35.9834 8.00466 34.7754 7.51758 33.5159 7.51758C32.2563 7.51758 31.0484 8.00466 30.1576 8.87172L29.0382 9.96322L36.8757 17.5945L37.9935 16.5045C38.4347 16.075 38.7847 15.5651 39.0234 15.004C39.2622 14.4428 39.3851 13.8413 39.3851 13.2339C39.3851 12.6264 39.2622 12.025 39.0234 11.4638C38.7847 10.9026 38.4347 10.3927 37.9935 9.96322L36.8741 8.87172ZM34.6353 19.7744L26.7978 12.1431L12.4053 26.1584C12.0903 26.4651 11.8703 26.8519 11.7704 27.2746L10.1411 34.1427C10.0804 34.3977 10.0874 34.6635 10.1614 34.9151C10.2353 35.1668 10.3739 35.3959 10.564 35.581C10.754 35.7661 10.9894 35.901 11.2478 35.973C11.5062 36.045 11.7793 36.0518 12.0411 35.9927L19.0965 34.4079C19.53 34.3103 19.9266 34.0961 20.2412 33.7897L34.6353 19.7744Z" fill="#808080"/>
</g>
<defs>
<clipPath id="clip0_403_1666">
<rect width="38" height="37" fill="white" transform="translate(5 4)"/>
</clipPath>
</defs>
</svg>
